<svg width="48" height="48" viewBox="0 0 48 48" fill="none" xmlns="http://www.w3.org/2000/svg">
<g clip-path="url(#clip0_29_126)">
<path d="M14 16V12H17.112C16.3922 10.7893 16.0083 9.40851 16 8C16 5.87827 16.8429 3.84344 18.3431 2.34315C19.8434 0.842855 21.8783 0 24 0C26.1217 0 28.1566 0.842855 29.6569 2.34315C31.1571 3.84344 32 5.87827 32 8C31.9917 9.40851 31.6079 10.7893 30.888 12H34V16H14ZM44 46C44 44.4087 43.3679 42.8826 42.2426 41.7574C41.1174 40.6321 39.5913 40 38 40H10C8.4087 40 6.88258 40.6321 5.75736 41.7574C4.63214 42.8826 4 44.4087 4 46V48H44V46ZM30.142 20H17.858C17.128 30.512 13.548 36 10 36H38C34.452 36 30.872 30.512 30.142 20Z" fill="#211A1E"/>
</g>
<defs>
<clipPath id="clip0_29_126">
<rect width="48" height="48" fill="white"/>
</clipPath>
</defs>
</svg>
