<svg width="48" height="48" viewBox="0 0 48 48" fill="none" xmlns="http://www.w3.org/2000/svg">
<path d="M30.1665 11.499L29.2977 13H31.032H34C34.2652 13 34.5196 13.1054 34.7071 13.2929C34.8946 13.4804 35 13.7348 35 14C35 14.2652 34.8946 14.5196 34.7071 14.7071C34.5196 14.8946 34.2652 15 34 15H14C13.7348 15 13.4804 14.8946 13.2929 14.7071C13.1054 14.5196 13 14.2652 13 14C13 13.7348 13.1054 13.4804 13.2929 13.2929C13.4804 13.1054 13.7348 13 14 13H16.4H18.1349L17.2653 11.4988L13.9144 5.71367C13.7389 5.34088 13.6903 4.92051 13.7766 4.51704C13.8651 4.10354 14.0901 3.73183 14.4154 3.4617C14.7407 3.19158 15.1474 3.03875 15.5702 3.02781C15.9929 3.01687 16.407 3.14845 16.7458 3.40138L16.8073 3.44722L16.8749 3.48317L18.9649 4.59317L19.7164 4.99227L20.2307 4.31441L22.2598 1.63989C22.4373 1.44859 22.6506 1.29379 22.8878 1.18434C23.136 1.06981 23.405 1.00737 23.6783 1.00087C23.9515 0.994373 24.2232 1.04396 24.4766 1.14656C24.7122 1.24198 24.9273 1.38137 25.1104 1.55711L27.2099 4.31914L27.7281 5.00095L28.4815 4.59371L30.7015 3.39371L30.755 3.36482L30.8045 3.32966C31.1263 3.1014 31.5148 2.98627 31.909 3.00227C32.3032 3.01827 32.681 3.1645 32.9833 3.41809L32.9961 3.4289L33.0094 3.43927C33.3374 3.69616 33.5688 4.05644 33.6661 4.46155C33.7602 4.85366 33.7233 5.26543 33.5616 5.63405L30.1665 11.499ZM8 41H40C40.7957 41 41.5587 41.3161 42.1213 41.8787C42.6839 42.4413 43 43.2044 43 44C43 44.7957 42.6839 45.5587 42.1213 46.1213C41.5587 46.6839 40.7957 47 40 47H8C7.20435 47 6.44129 46.6839 5.87868 46.1213C5.31607 45.5587 5 44.7957 5 44C5 43.2044 5.31607 42.4413 5.87868 41.8787C6.44129 41.3161 7.20435 41 8 41ZM16.2177 21H31.7821C32.7697 25.7694 34.1396 30.4512 35.8785 35H12.1179C13.8579 30.4513 15.229 25.7695 16.2177 21Z" fill="white" stroke="#211A1E" stroke-width="2"/>
</svg>
