<svg width="48" height="48" viewBox="0 0 48 48" fill="none" xmlns="http://www.w3.org/2000/svg">
<g clip-path="url(#clip0_29_146)">
<path d="M17.9715 11.4889C17.3431 10.432 17.0078 9.22664 17 7.99703C17.0008 6.14159 17.7382 4.36231 19.0503 3.05025C20.363 1.7375 22.1435 1 24 1C25.8565 1 27.637 1.7375 28.9498 3.05025C30.2618 4.36231 30.9992 6.14159 31 7.99703C30.9922 9.22664 30.6569 10.432 30.0285 11.4889L29.13 13H30.888H33V15H15V13H17.112H18.87L17.9715 11.4889ZM32.1315 32.4119C32.667 33.4178 33.2733 34.2922 33.9382 35H14.0618C14.7267 34.2922 15.333 33.4178 15.8685 32.4119C17.2963 29.7296 18.3538 25.8956 18.7826 21H29.2174C29.6462 25.8956 30.7037 29.7296 32.1315 32.4119ZM41.5355 42.4645C42.4732 43.4021 43 44.6739 43 46V47H5V46C5 44.6739 5.52678 43.4021 6.46447 42.4645C7.40215 41.5268 8.67392 41 10 41H38C39.3261 41 40.5979 41.5268 41.5355 42.4645Z" fill="white" stroke="#211A1E" stroke-width="2"/>
</g>
<defs>
<clipPath id="clip0_29_146">
<rect width="48" height="48" fill="white"/>
</clipPath>
</defs>
</svg>
