<svg width="48" height="48" viewBox="0 0 48 48" fill="none" xmlns="http://www.w3.org/2000/svg">
<g clip-path="url(#clip0_30_186)">
<path d="M41 45H35.29H32.4503L34.6634 43.2207C36.6408 41.6308 38.2365 39.6178 39.3331 37.3298C40.4297 35.0419 40.9993 32.5372 41 30V45ZM41 45V47H7V45H12.712H15.5528L13.3384 43.2205C11.3605 41.6311 9.7643 39.6182 8.66735 37.3302C7.57043 35.0422 7.00067 32.5373 7 30L41 45ZM26.1118 30.6555L25.3312 30.0308L22.2072 27.5308L21.4265 26.906L22.0512 26.1253L31.9406 13.7649C29.9632 11.7357 27.8671 9.82524 25.6633 8.04368L24.6301 7.2084L25.7187 6.44667C26.2385 6.08292 26.6297 5.56371 26.8359 4.96368C27.0421 4.36365 27.0528 3.71368 26.8664 3.10721C26.6799 2.50073 26.306 1.96898 25.7984 1.58837C25.2908 1.20776 24.6755 0.997897 24.0411 0.988946C23.4067 0.979995 22.7858 1.17242 22.2676 1.53855C21.7494 1.90469 21.3606 2.42568 21.1572 3.02666C20.9537 3.62763 20.9461 4.27764 21.1353 4.88325C21.3245 5.48886 21.7008 6.0189 22.2102 6.39717L23.3268 7.22635L22.1852 8.02081C20.2269 9.38365 16.3998 12.2833 13.0722 16.1735C9.73084 20.0798 7.00009 24.8594 7 29.9998L26.1118 30.6555ZM26.1118 30.6555L26.7367 29.875M26.1118 30.6555L26.7367 29.875M26.7367 29.875L35.9515 18.3637M26.7367 29.875L35.9515 18.3637M35.9515 18.3637C38.8302 22.1075 40.9999 26.2018 41 29.9997L35.9515 18.3637Z" fill="white" stroke="#211A1E" stroke-width="2"/>
</g>
<defs>
<clipPath id="clip0_30_186">
<rect width="48" height="48" fill="white"/>
</clipPath>
</defs>
</svg>
