<svg width="48" height="48" viewBox="0 0 48 48" fill="none" xmlns="http://www.w3.org/2000/svg">
<g clip-path="url(#clip0_30_174)">
<path d="M40 36H8V33.292C7.99402 32.0019 8.40713 30.7447 9.17719 29.7095C9.94724 28.6743 11.0326 27.9172 12.27 27.552C14.4495 27.0102 16.4068 25.8043 17.8708 24.1013C19.3349 22.3982 20.2334 20.2822 20.442 18.046H8V16.098C8.00435 14.8915 8.37077 13.7141 9.05183 12.7182C9.73289 11.7222 10.6972 10.9537 11.82 10.512C15.52 9.01002 17.8 7.13802 19.186 1.56202L19.562 0.0460205H21.124C39.784 0.0460205 40 16.876 40 17.046V36ZM44 48H4V46C4 44.4087 4.63214 42.8826 5.75736 41.7574C6.88258 40.6322 8.4087 40 10 40H38C39.5913 40 41.1174 40.6322 42.2426 41.7574C43.3679 42.8826 44 44.4087 44 46V48Z" fill="black"/>
</g>
<defs>
<clipPath id="clip0_30_174">
<rect width="48" height="48" fill="white"/>
</clipPath>
</defs>
</svg>
