<svg width="48" height="48" viewBox="0 0 48 48" fill="none" xmlns="http://www.w3.org/2000/svg">
<g clip-path="url(#clip0_30_182)">
<path d="M42 30C42 25.504 39.236 20.79 35.956 16.758L25.956 29.25L22.832 26.75L33.27 13.704C31.0867 11.4083 28.7558 9.25771 26.292 7.26601C26.9851 6.78101 27.5067 6.08874 27.7816 5.28869C28.0566 4.48865 28.0708 3.62203 27.8222 2.81339C27.5737 2.00476 27.0751 1.29575 26.3983 0.788273C25.7214 0.280795 24.9011 0.000980014 24.0552 -0.0109543C23.2093 -0.0228886 22.3814 0.233672 21.6905 0.721853C20.9996 1.21003 20.4813 1.9047 20.21 2.706C19.9387 3.5073 19.9285 4.37397 20.1808 5.18145C20.433 5.98894 20.9348 6.69565 21.614 7.20001C17.628 9.97401 6 19.022 6 30C6.00067 32.687 6.60402 35.3396 7.76563 37.7625C8.92724 40.1854 10.6175 42.3169 12.712 44H6V48H42V44H35.29C37.3839 42.3165 39.0736 40.1849 40.2349 37.762C41.3961 35.3392 41.9993 32.6868 42 30Z" fill="black"/>
</g>
<defs>
<clipPath id="clip0_30_182">
<rect width="48" height="48" fill="white"/>
</clipPath>
</defs>
</svg>
