<svg width="24" height="25" viewBox="0 0 24 25" fill="none" xmlns="http://www.w3.org/2000/svg">
<g clip-path="url(#clip0_7_96)">
<path d="M12.056 11.711L20.095 18.429L14.401 22.7C12.979 23.767 11.023 23.767 9.601 22.7L3.468 18.1C2.949 17.711 2.317 17.5 1.668 17.5H1.001C0.448 17.5 0 17.052 0 16.5V5.437C0 4.929 0.379 4.506 0.884 4.449C2.241 4.298 3.463 3.753 4.713 3.025C6.511 2.1 8.87 2.43 10.329 3.797L10.946 4.39L6.939 8.301C5.866 9.373 5.695 11.068 6.541 12.239C7.061 12.962 8.002 13.498 8.985 13.498C9.778 13.498 10.539 13.186 11.089 12.635L12.056 11.71V11.711ZM19.954 3.025C18.264 2.18 16.156 2.4 14.646 3.573L8.343 9.725C7.972 10.097 7.888 10.692 8.162 11.072C8.342 11.322 8.603 11.472 8.901 11.497C9.196 11.522 9.482 11.415 9.689 11.207L13.307 7.778C14.256 6.877 15.631 8.315 14.69 9.223L13.509 10.32L22.102 17.501H22.999C23.551 17.501 23.999 17.053 23.999 16.501V5.403C23.999 4.913 23.641 4.508 23.158 4.421C21.464 4.115 19.953 3.026 19.953 3.026L19.954 3.025Z" fill="black"/>
</g>
<defs>
<clipPath id="clip0_7_96">
<rect width="24" height="24" fill="white" transform="translate(0 0.5)"/>
</clipPath>
</defs>
</svg>
