<svg width="68" height="69" viewBox="0 0 68 69" fill="none" xmlns="http://www.w3.org/2000/svg">
<g clip-path="url(#clip0_29_104)">
<path d="M26.8701 7.62994L7.07107 27.4289C5.19864 29.3059 4.1471 31.8488 4.1471 34.5C4.1471 37.1512 5.19864 39.6941 7.07107 41.5711L26.8701 61.3701C28.747 63.2425 31.2899 64.294 33.9411 64.294C36.5923 64.294 39.1353 63.2425 41.0122 61.3701L60.8112 41.5711C62.6836 39.6941 63.7352 37.1512 63.7352 34.5C63.7352 31.8488 62.6836 29.3059 60.8112 27.4289L41.0122 7.62994C39.1353 5.75751 36.5923 4.70597 33.9411 4.70597C31.2899 4.70597 28.747 5.75751 26.8701 7.62994ZM50.9117 23.1863L56.5685 28.8431L50.9117 34.5L56.5685 40.1569L50.9117 45.8137L45.2548 40.1569L39.598 45.8137L45.2548 51.4706L39.598 57.1274L33.9411 51.4706L28.2843 57.1274L22.6274 51.4706L28.2843 45.8137L22.6274 40.1569L16.9706 45.8137L11.3137 40.1569L16.9706 34.5L11.3137 28.8431L16.9706 23.1863L22.6274 28.8431L28.2843 23.1863L22.6274 17.5294L28.2843 11.8726L33.9411 17.5294L39.598 11.8726L45.2548 17.5294L39.598 23.1863L45.2548 28.8431L50.9117 23.1863ZM28.2843 34.5L22.6274 40.1569L16.9706 34.5L22.6274 28.8431L28.2843 34.5ZM33.9411 28.8431L28.2843 23.1863L33.9411 17.5294L39.598 23.1863L33.9411 28.8431ZM33.9411 40.1569L39.598 45.8137L33.9411 51.4706L28.2843 45.8137L33.9411 40.1569ZM39.598 34.5L45.2548 28.8431L50.9117 34.5L45.2548 40.1569L39.598 34.5ZM28.2843 34.5L33.9411 28.8431L39.598 34.5L33.9411 40.1569L28.2843 34.5Z" fill="#5EBAFE"/>
</g>
<defs>
<clipPath id="clip0_29_104">
<rect width="48" height="48" fill="white" transform="translate(0 34.5) rotate(-45)"/>
</clipPath>
</defs>
</svg>
