<svg width="48" height="48" viewBox="0 0 48 48" fill="none" xmlns="http://www.w3.org/2000/svg">
<g clip-path="url(#clip0_7_44)">
<path d="M32 46.628C29.496 47.516 26.804 48 24 48C21.196 48 18.504 47.516 16 46.628V42C16 37.588 19.588 34 24 34C28.412 34 32 37.588 32 42V46.628ZM24 14C21.794 14 20 15.794 20 18C20 20.206 21.794 22 24 22C26.206 22 28 20.206 28 18C28 15.794 26.206 14 24 14ZM48 24C48 32.866 43.168 40.622 36 44.778V42C36 35.382 30.618 30 24 30C17.382 30 12 35.382 12 42V44.778C4.832 40.622 0 32.866 0 24C0 10.766 10.766 0 24 0C37.234 0 48 10.766 48 24ZM32 18C32 13.588 28.412 10 24 10C19.588 10 16 13.588 16 18C16 22.412 19.588 26 24 26C28.412 26 32 22.412 32 18Z" fill="black"/>
</g>
<defs>
<clipPath id="clip0_7_44">
<rect width="48" height="48" fill="white"/>
</clipPath>
</defs>
</svg>
