<svg width="48" height="48" viewBox="0 0 48 48" fill="none" xmlns="http://www.w3.org/2000/svg">
<g clip-path="url(#clip0_30_196)">
<path d="M1.22382 23.986L1.22316 23.9838C1.02851 23.3561 0.959845 22.6961 1.0211 22.0417C1.08236 21.3873 1.27234 20.7515 1.58011 20.1708C1.88789 19.5901 2.3074 19.0759 2.81452 18.6578C3.31848 18.2424 3.89909 17.93 4.52337 17.7383C10.2359 16.1611 16.1133 15.2573 22.0358 15.0454L23 15.0108V14.046V10V9H22H17V7H22H23V6V1H25V6V7H26H31V9H26H25V10V14.046V15.0108L25.9643 15.0454C31.8865 15.2573 37.7636 16.161 43.4758 17.7381C44.0995 17.9308 44.6794 18.2438 45.1828 18.6594C45.6896 19.0779 46.109 19.5921 46.4169 20.1728C46.7247 20.7534 46.9151 21.389 46.9772 22.0433C47.0392 22.6976 46.9716 23.3577 46.7783 23.9859L42.1575 39H5.84264L1.22382 23.986ZM43 47H5.00002V45H43V47Z" fill="white" stroke="#211A1E" stroke-width="2"/>
</g>
<defs>
<clipPath id="clip0_30_196">
<rect width="48" height="48" fill="white"/>
</clipPath>
</defs>
</svg>
