<svg width="64" height="64" viewBox="0 0 64 64" fill="none" xmlns="http://www.w3.org/2000/svg">
<g clip-path="url(#clip0_5_14)">
<path d="M32 64C38.329 64 44.5159 62.1232 49.7783 58.607C55.0406 55.0908 59.1421 50.0931 61.5642 44.2459C63.9862 38.3987 64.6199 31.9645 63.3851 25.7571C62.1504 19.5497 59.1027 13.8479 54.6274 9.3726C50.1521 4.89732 44.4503 1.84961 38.2429 0.614885C32.0355 -0.619842 25.6014 0.0138652 19.7541 2.43587C13.9069 4.85787 8.90918 8.95939 5.39297 14.2218C1.87677 19.4841 0 25.671 0 32C0.00917622 40.4841 3.38354 48.6181 9.38272 54.6173C15.3819 60.6165 23.5159 63.9908 32 64ZM32 13.3333C32.7911 13.3333 33.5645 13.5679 34.2223 14.0075C34.8801 14.447 35.3928 15.0717 35.6955 15.8026C35.9983 16.5335 36.0775 17.3378 35.9231 18.1137C35.7688 18.8896 35.3878 19.6024 34.8284 20.1618C34.269 20.7212 33.5563 21.1021 32.7804 21.2565C32.0044 21.4108 31.2002 21.3316 30.4693 21.0289C29.7384 20.7261 29.1136 20.2134 28.6741 19.5556C28.2346 18.8978 28 18.1245 28 17.3333C28 16.2725 28.4214 15.2551 29.1716 14.5049C29.9217 13.7548 30.9391 13.3333 32 13.3333ZM29.3333 26.6667H32C33.4145 26.6667 34.771 27.2286 35.7712 28.2288C36.7714 29.229 37.3333 30.5855 37.3333 32V48C37.3333 48.7073 37.0524 49.3855 36.5523 49.8856C36.0522 50.3857 35.3739 50.6667 34.6667 50.6667C33.9594 50.6667 33.2812 50.3857 32.7811 49.8856C32.281 49.3855 32 48.7073 32 48V32H29.3333C28.6261 32 27.9478 31.7191 27.4477 31.219C26.9476 30.7189 26.6667 30.0406 26.6667 29.3333C26.6667 28.6261 26.9476 27.9478 27.4477 27.4477C27.9478 26.9476 28.6261 26.6667 29.3333 26.6667Z" fill="#211A1E"/>
</g>
<defs>
<clipPath id="clip0_5_14">
<rect width="64" height="64" fill="white"/>
</clipPath>
</defs>
</svg>
