<svg width="48" height="48" viewBox="0 0 48 48" fill="none" xmlns="http://www.w3.org/2000/svg">
<g clip-path="url(#clip0_30_170)">
<path d="M32 9H33V8V1H41V11.9988C40.9987 13.033 40.6776 14.0415 40.0806 14.886C39.4835 15.7304 38.6399 16.3696 37.6653 16.7157L37 16.952V17.658V35H11V17.658V16.952L10.3347 16.7157C9.36009 16.3696 8.51646 15.7304 7.91944 14.886C7.32253 14.0416 7.00138 13.0333 7 11.9993V1H15V8V9H16H20H21V8V1H27V8V9H28H32ZM28 27H29V26V20C29 18.6739 28.4732 17.4021 27.5355 16.4645C26.5979 15.5268 25.3261 15 24 15C22.6739 15 21.4021 15.5268 20.4645 16.4645C19.5268 17.4021 19 18.6739 19 20V26V27H20H28ZM5 47V46C5 44.6739 5.52678 43.4021 6.46447 42.4645C7.40215 41.5268 8.67392 41 10 41H38C39.3261 41 40.5979 41.5268 41.5355 42.4645C42.4732 43.4021 43 44.6739 43 46V47H5Z" fill="white" stroke="#211A1E" stroke-width="2"/>
</g>
<defs>
<clipPath id="clip0_30_170">
<rect width="48" height="48" fill="white"/>
</clipPath>
</defs>
</svg>
