<svg width="48" height="48" viewBox="0 0 48 48" fill="none" xmlns="http://www.w3.org/2000/svg">
<g clip-path="url(#clip0_7_123)">
<path d="M28.242 24.0002L47.1213 5.12298C48.2932 3.95106 48.2932 2.05101 47.1213 0.879185C45.9493 -0.292736 44.0493 -0.292736 42.8775 0.879185L24.0002 19.7583L5.12298 0.879185C3.95106 -0.292736 2.05101 -0.292736 0.879185 0.879185C-0.292642 2.05111 -0.292736 3.95115 0.879185 5.12298L19.7583 24.0002L0.879185 42.8775C-0.292736 44.0494 -0.292736 45.9494 0.879185 47.1213C2.05111 48.2931 3.95115 48.2932 5.12298 47.1213L24.0002 28.242L42.8774 47.1213C44.0493 48.2932 45.9493 48.2932 47.1212 47.1213C48.2931 45.9493 48.2931 44.0493 47.1212 42.8775L28.242 24.0002Z" fill="#211A1E"/>
</g>
<defs>
<clipPath id="clip0_7_123">
<rect width="48" height="48" fill="white"/>
</clipPath>
</defs>
</svg>
