<svg width="48" height="48" viewBox="0 0 48 48" fill="none" xmlns="http://www.w3.org/2000/svg">
<g clip-path="url(#clip0_30_166)">
<path d="M44 48H4V46C4 44.4087 4.63214 42.8826 5.75736 41.7574C6.88258 40.6321 8.4087 40 10 40H38C39.5913 40 41.1174 40.6321 42.2426 41.7574C43.3679 42.8826 44 44.4087 44 46V48ZM32 0V8H28V0H20V8H16V0H6V12C6.00151 13.2405 6.38675 14.4503 7.10289 15.4632C7.81902 16.4762 8.83098 17.2428 10 17.658V36H38V17.658C39.169 17.2428 40.181 16.4762 40.8971 15.4632C41.6132 14.4503 41.9985 13.2405 42 12V0H32ZM28 26H20V20C20 18.9391 20.4214 17.9217 21.1716 17.1716C21.9217 16.4214 22.9391 16 24 16C25.0609 16 26.0783 16.4214 26.8284 17.1716C27.5786 17.9217 28 18.9391 28 20V26Z" fill="black"/>
</g>
<defs>
<clipPath id="clip0_30_166">
<rect width="48" height="48" fill="white"/>
</clipPath>
</defs>
</svg>
