<svg width="48" height="48" viewBox="0 0 48 48" fill="none" xmlns="http://www.w3.org/2000/svg">
<g clip-path="url(#clip0_30_194)">
<path d="M0.268021 24.28C0.0343513 23.5264 -0.0480827 22.734 0.0254567 21.9485C0.0989961 21.1629 0.327059 20.3996 0.696538 19.7025C1.06602 19.0053 1.56963 18.3881 2.17842 17.8862C2.78722 17.3843 3.4892 17.0077 4.24402 16.778C10.0359 15.1778 15.995 14.2609 22 14.046V10H16V6H22V0H26V6H32V10H26V14.046C32.005 14.2609 37.9642 15.1778 43.756 16.778C44.5101 17.0089 45.2113 17.3862 45.8195 17.8883C46.4277 18.3904 46.9309 19.0075 47.3003 19.7043C47.6698 20.4011 47.8983 21.1638 47.9727 21.949C48.0471 22.7341 47.966 23.5262 47.734 24.28L42.896 40H5.10402L0.268021 24.28ZM4.00002 44V48H44V44H4.00002Z" fill="black"/>
</g>
<defs>
<clipPath id="clip0_30_194">
<rect width="48" height="48" fill="white"/>
</clipPath>
</defs>
</svg>
