<svg width="48" height="48" viewBox="0 0 48 48" fill="none" xmlns="http://www.w3.org/2000/svg">
<g clip-path="url(#clip0_30_178)">
<path d="M39 17.046V35H9L9.00001 33.292L8.99999 33.2874C8.99502 32.2139 9.33876 31.1677 9.97953 30.3064C10.6163 29.4504 11.5121 28.8229 12.5337 28.5169C14.9054 27.9224 17.0349 26.6076 18.6291 24.7532C20.2284 22.8929 21.2098 20.5815 21.4377 18.1389L21.5396 17.046H20.442H9V16.0999C9.00398 15.0942 9.30957 14.1128 9.87727 13.2826C10.4453 12.452 11.2496 11.811 12.1861 11.4426L12.1861 11.4427L12.1961 11.4386C14.1113 10.6611 15.7661 9.74604 17.1173 8.23015C18.4667 6.71623 19.4397 4.68676 20.1565 1.80325L20.1566 1.80275L20.3443 1.04602H21.124C30.0776 1.04602 34.4716 5.04534 36.6886 8.97376C37.8149 10.9695 38.3955 12.9802 38.6931 14.5091C38.9834 16.0004 38.9994 17.0062 39 17.045C39 17.0459 39 17.0463 39 17.046ZM43 47H5V46C5 44.6739 5.52678 43.4022 6.46447 42.4645C7.40215 41.5268 8.67392 41 10 41H38C39.3261 41 40.5979 41.5268 41.5355 42.4645C42.4732 43.4022 43 44.6739 43 46V47Z" fill="white" stroke="#211A1E" stroke-width="2"/>
</g>
<defs>
<clipPath id="clip0_30_178">
<rect width="48" height="48" fill="white"/>
</clipPath>
</defs>
</svg>
