<svg width="64" height="64" viewBox="0 0 64 64" fill="none" xmlns="http://www.w3.org/2000/svg">
<g clip-path="url(#clip0_19_7)">
<path d="M32 0C25.671 0 19.4841 1.87677 14.2218 5.39297C8.95939 8.90918 4.85787 13.9069 2.43587 19.7541C0.0138652 25.6014 -0.619842 32.0355 0.614885 38.2429C1.84961 44.4503 4.89732 50.1521 9.3726 54.6274C13.8479 59.1027 19.5497 62.1504 25.7571 63.3851C31.9645 64.6199 38.3987 63.9862 44.2459 61.5642C50.0931 59.1421 55.0908 55.0406 58.607 49.7783C62.1232 44.5159 64 38.329 64 32C63.9908 23.5159 60.6165 15.3819 54.6173 9.38272C48.6181 3.38354 40.4841 0.00917622 32 0ZM32 58.6667C26.7258 58.6667 21.5701 57.1027 17.1848 54.1725C12.7995 51.2424 9.38156 47.0776 7.36323 42.2049C5.34489 37.3322 4.8168 31.9704 5.84574 26.7976C6.87468 21.6248 9.41443 16.8732 13.1438 13.1438C16.8732 9.41442 21.6248 6.87467 26.7976 5.84573C31.9704 4.81679 37.3322 5.34488 42.2049 7.36321C47.0776 9.38155 51.2424 12.7995 54.1725 17.1848C57.1027 21.5701 58.6667 26.7258 58.6667 32C58.6589 39.0701 55.8469 45.8483 50.8476 50.8476C45.8483 55.8469 39.0701 58.6589 32 58.6667Z" fill="#211A1E"/>
<path d="M33.912 13.5013C32.3742 13.2211 30.7936 13.2823 29.2821 13.6806C27.7706 14.0789 26.3651 14.8045 25.165 15.8061C23.965 16.8077 22.9997 18.0608 22.3376 19.4768C21.6755 20.8927 21.3326 22.4369 21.3333 24C21.3333 24.7072 21.6143 25.3855 22.1144 25.8856C22.6145 26.3857 23.2927 26.6666 24 26.6666C24.7072 26.6666 25.3855 26.3857 25.8856 25.8856C26.3857 25.3855 26.6666 24.7072 26.6666 24C26.666 23.2154 26.8384 22.4403 27.1717 21.73C27.505 21.0197 27.9908 20.3917 28.5947 19.8907C29.1985 19.3898 29.9055 19.0282 30.6651 18.8318C31.4247 18.6355 32.2183 18.6091 32.9893 18.7546C34.0428 18.9591 35.0113 19.473 35.7713 20.2306C36.5313 20.9882 37.0482 21.9552 37.256 23.008C37.4658 24.1131 37.3209 25.2562 36.842 26.2739C36.363 27.2917 35.5746 28.132 34.5893 28.6746C32.9578 29.6199 31.6095 30.9854 30.6851 32.6288C29.7607 34.2722 29.2939 36.1335 29.3333 38.0187V40C29.3333 40.7072 29.6143 41.3855 30.1144 41.8856C30.6145 42.3857 31.2927 42.6666 32 42.6666C32.7072 42.6666 33.3855 42.3857 33.8856 41.8856C34.3857 41.3855 34.6666 40.7072 34.6666 40V38.0187C34.6332 37.0907 34.8448 36.1703 35.2802 35.3501C35.7155 34.5299 36.3593 33.8389 37.1466 33.3466C39.0787 32.2855 40.6345 30.6519 41.6002 28.6704C42.5659 26.6889 42.894 24.4569 42.5394 22.2814C42.1848 20.1058 41.1649 18.0936 39.62 16.5213C38.0751 14.949 36.081 13.894 33.912 13.5013Z" fill="#211A1E"/>
<path d="M34.6666 48C34.6666 46.5272 33.4727 45.3333 32 45.3333C30.5272 45.3333 29.3333 46.5272 29.3333 48C29.3333 49.4727 30.5272 50.6666 32 50.6666C33.4727 50.6666 34.6666 49.4727 34.6666 48Z" fill="#211A1E"/>
</g>
<defs>
<clipPath id="clip0_19_7">
<rect width="64" height="64" fill="white"/>
</clipPath>
</defs>
</svg>
