<svg width="48" height="48" viewBox="0 0 48 48" fill="none" xmlns="http://www.w3.org/2000/svg">
<path d="M8 39.9999H40C41.0609 39.9999 42.0783 40.4214 42.8284 41.1715C43.5786 41.9217 44 42.9391 44 43.9999C44 45.0608 43.5786 46.0782 42.8284 46.8284C42.0783 47.5785 41.0609 47.9999 40 47.9999H8C6.93913 47.9999 5.92172 47.5785 5.17157 46.8284C4.42143 46.0782 4 45.0608 4 43.9999C4 42.9391 4.42143 41.9217 5.17157 41.1715C5.92172 40.4214 6.93913 39.9999 8 39.9999ZM14 15.9999H34C34.5304 15.9999 35.0391 15.7892 35.4142 15.4142C35.7893 15.0391 36 14.5304 36 13.9999C36 13.4695 35.7893 12.9608 35.4142 12.5857C35.0391 12.2107 34.5304 11.9999 34 11.9999H31.032L34.452 6.09194C34.7227 5.50947 34.7884 4.85256 34.6384 4.22801C34.4885 3.60346 34.1317 3.048 33.626 2.65194C33.1543 2.25621 32.5647 2.028 31.9495 2.00303C31.3343 1.97806 30.7282 2.15773 30.226 2.51394L28.006 3.71394L25.864 0.895942C25.5764 0.603715 25.232 0.373542 24.8519 0.219633C24.4719 0.0657236 24.0644 -0.00865408 23.6545 0.00109185C23.2446 0.0108378 22.8411 0.104501 22.4688 0.276297C22.0965 0.448094 21.7634 0.694377 21.49 0.999942L19.434 3.70994L17.344 2.59994C16.8253 2.21275 16.1914 2.01133 15.5443 2.02808C14.8972 2.04483 14.2746 2.27878 13.7766 2.69228C13.2786 3.10578 12.9341 3.6748 12.7987 4.30777C12.6633 4.94075 12.7448 5.60088 13.03 6.18194L16.4 11.9999H14C13.4696 11.9999 12.9609 12.2107 12.5858 12.5857C12.2107 12.9608 12 13.4695 12 13.9999C12 14.5304 12.2107 15.0391 12.5858 15.4142C12.9609 15.7892 13.4696 15.9999 14 15.9999ZM37.344 35.9999C35.2691 30.8256 33.6809 25.4691 32.6 19.9999H15.4C14.3178 25.4692 12.7283 30.8257 10.652 35.9999H37.344Z" fill="black"/>
</svg>
